<?xml version="1.0" encoding="iso-8859-1"?>
<!-- Uploaded to: SVG Repo, www.svgrepo.com, Generator: SVG Repo Mixer Tools -->
<svg height="800px" width="800px" version="1.1" id="Layer_1" xmlns="http://www.w3.org/2000/svg" xmlns:xlink="http://www.w3.org/1999/xlink" 
	 viewBox="0 0 512 512" xml:space="preserve">
<path style="fill:#FFE49C;" d="M494.14,315.771H17.86c-9.864,0-17.86-7.997-17.86-17.86V55.353
	c0-22.979,18.695-41.674,41.674-41.674h428.651c22.979,0,41.674,18.695,41.674,41.674V297.91
	C512,307.774,504.003,315.771,494.14,315.771z"/>
<path style="fill:#FFBE00;" d="M327.49,498.321H184.511c-11.587,0-20.076-10.866-17.357-22.07l26.967-111.203
	c1.942-8.011,9.114-13.651,17.357-13.651h89.044c8.243,0,15.415,5.64,17.357,13.651l26.967,111.203
	C347.568,487.467,339.064,498.321,327.49,498.321z"/>
<g>
	<path style="fill:#FFD155;" d="M364.151,498.321H147.849c-9.864,0-17.86-7.997-17.86-17.86s7.997-17.86,17.86-17.86h216.302
		c9.864,0,17.86,7.997,17.86,17.86S374.015,498.321,364.151,498.321z"/>
	<path style="fill:#FFD155;" d="M470.326,387.117H41.674C18.658,387.117,0,368.459,0,345.443v-53.486h512v53.486
		C512,368.459,493.342,387.117,470.326,387.117z"/>
	<path style="fill:#FFD155;" d="M470.326,13.679H256v302.092h238.14c9.864,0,17.86-7.997,17.86-17.86V55.353
		C512,32.373,493.305,13.679,470.326,13.679z"/>
</g>
<path style="fill:#FFAF00;" d="M344.846,476.252l-26.967-111.203c-1.942-8.01-9.114-13.651-17.357-13.651H256v146.924h71.49
	C339.064,498.321,347.568,487.467,344.846,476.252z"/>
<path style="fill:#FFBE00;" d="M256,291.957v95.161h214.326c23.016,0,41.674-18.658,41.674-41.674v-53.486L256,291.957L256,291.957z
	"/>
<path style="fill:#FFD155;" d="M375.887,261.315H136.113c-7.086,0-12.83-5.744-12.83-12.83V57.149c0-7.086,5.744-12.83,12.83-12.83
	h239.772c7.086,0,12.83,5.744,12.83,12.83v191.337C388.715,255.571,382.971,261.315,375.887,261.315z"/>
<g>
	<path style="fill:#FFE49C;" d="M351.332,140.631H160.668c-7.966,0-14.424-6.458-14.424-14.424V90.886
		c0-7.967,6.458-14.424,14.424-14.424h190.664c7.966,0,14.424,6.458,14.424,14.424v35.32
		C365.756,134.173,359.298,140.631,351.332,140.631z"/>
	<path style="fill:#FFE49C;" d="M230.583,229.174h-69.915c-7.966,0-14.424-6.458-14.424-14.424v-36.657
		c0-7.966,6.458-14.424,14.424-14.424h69.915c7.967,0,14.424,6.458,14.424,14.424v36.656
		C245.009,222.715,238.55,229.174,230.583,229.174z"/>
</g>
<g>
	<path style="fill:#FFBE00;" d="M375.887,44.32H256v216.995h119.887c7.086,0,12.83-5.744,12.83-12.83V57.15
		C388.715,50.064,382.971,44.32,375.887,44.32z"/>
	<path style="fill:#FFBE00;" d="M364.151,462.6H256v35.721h108.151c9.864,0,17.86-7.997,17.86-17.86
		C382.012,470.597,374.015,462.6,364.151,462.6z"/>
</g>
<g>
	<path style="fill:#FFD155;" d="M351.332,76.462H256v64.169h95.332c7.966,0,14.424-6.458,14.424-14.424V90.886
		C365.756,82.919,359.298,76.462,351.332,76.462z"/>
	<path style="fill:#FFD155;" d="M351.332,192.517h-66.119c-7.966,0-14.424-6.458-14.424-14.424s6.458-14.424,14.424-14.424h66.119
		c7.966,0,14.424,6.458,14.424,14.424C365.756,186.06,359.298,192.517,351.332,192.517z"/>
	<path style="fill:#FFD155;" d="M351.332,229.174h-66.119c-7.966,0-14.424-6.458-14.424-14.424c0-7.966,6.458-14.424,14.424-14.424
		h66.119c7.966,0,14.424,6.458,14.424,14.424C365.756,222.715,359.298,229.174,351.332,229.174z"/>
</g>
</svg>